<mxfile host="drawio-plugin" modified="2024-11-22T15:43:42.014Z" agent="5.0 (Windows NT 6.2; Win64; x64) AppleWebKit/537.36 (KHTML, like Gecko) Chrome/104.0.5112.102 Safari/537.36" etag="bd_Qf_jRWk85ExwBSoaD" version="20.5.3" type="embed"><diagram id="QLvfaubpzDbuSd1G6Ct9" name="Page-1"><mxGraphModel dx="1720" dy="1123" grid="1" gridSize="10" guides="1" tooltips="1" connect="1" arrows="1" fold="1" page="1" pageScale="1" pageWidth="850" pageHeight="1100" math="0" shadow="0"><root><mxCell id="0"/><mxCell id="1" parent="0"/><mxCell id="23" value="Farm" style="swimlane;childLayout=stackLayout;horizontal=1;startSize=30;horizontalStack=0;rounded=1;fontSize=18;fontStyle=0;strokeWidth=2;resizeParent=0;resizeLast=1;shadow=0;dashed=0;align=center;" parent="1" vertex="1"><mxGeometry x="110" y="40" width="220" height="170" as="geometry"/></mxCell><mxCell id="24" value="- Long id&#10;- String name&#10;- String location&#10;- Double area&#10;- LocalDate creationDate" style="align=left;strokeColor=none;fillColor=none;spacingLeft=4;fontSize=18;verticalAlign=top;resizable=0;rotatable=0;part=1;" parent="23" vertex="1"><mxGeometry y="30" width="220" height="140" as="geometry"/></mxCell><mxCell id="30" value="Field" style="swimlane;childLayout=stackLayout;horizontal=1;startSize=30;horizontalStack=0;rounded=1;fontSize=18;fontStyle=0;strokeWidth=2;resizeParent=0;resizeLast=1;shadow=0;dashed=0;align=center;" parent="1" vertex="1"><mxGeometry x="110" y="310" width="220" height="170" as="geometry"/></mxCell><mxCell id="31" value="- Long id&#10;- String name&#10;- Double area&#10;- Farm farm" style="align=left;strokeColor=none;fillColor=none;spacingLeft=4;fontSize=18;verticalAlign=top;resizable=0;rotatable=0;part=1;" parent="30" vertex="1"><mxGeometry y="30" width="220" height="140" as="geometry"/></mxCell><mxCell id="32" value="Tree" style="swimlane;childLayout=stackLayout;horizontal=1;startSize=30;horizontalStack=0;rounded=1;fontSize=18;fontStyle=0;strokeWidth=2;resizeParent=0;resizeLast=1;shadow=0;dashed=0;align=center;" parent="1" vertex="1"><mxGeometry x="60" y="579" width="340" height="221" as="geometry"/></mxCell><mxCell id="33" value="- Long id&#10;- LocalDate plantingDate&#10;- Field field&#10;&#10;+ getAge(): int&#10;+ getAnnualProductivity(): double&#10;+ isProductive(): boolean&#10;+ isValidPlantingPeriod(): boolean" style="align=left;strokeColor=none;fillColor=none;spacingLeft=4;fontSize=18;verticalAlign=top;resizable=0;rotatable=0;part=1;" parent="32" vertex="1"><mxGeometry y="30" width="340" height="191" as="geometry"/></mxCell><mxCell id="68" value="" style="endArrow=none;html=1;rounded=0;exitX=0;exitY=0.5;exitDx=0;exitDy=0;entryX=1.003;entryY=0.44;entryDx=0;entryDy=0;entryPerimeter=0;" edge="1" parent="32" target="33"><mxGeometry width="50" height="50" relative="1" as="geometry"><mxPoint y="112" as="sourcePoint"/><mxPoint x="220" y="112" as="targetPoint"/></mxGeometry></mxCell><mxCell id="34" value="Harvest" style="swimlane;childLayout=stackLayout;horizontal=1;startSize=30;horizontalStack=0;rounded=1;fontSize=18;fontStyle=0;strokeWidth=2;resizeParent=0;resizeLast=1;shadow=0;dashed=0;align=center;" parent="1" vertex="1"><mxGeometry x="500" y="570" width="220" height="170" as="geometry"/></mxCell><mxCell id="35" value="- Long id&#10;- Season season&#10;- LocalDate harvestDate&#10;- Double totalQuantity" style="align=left;strokeColor=none;fillColor=none;spacingLeft=4;fontSize=18;verticalAlign=top;resizable=0;rotatable=0;part=1;" parent="34" vertex="1"><mxGeometry y="30" width="220" height="140" as="geometry"/></mxCell><mxCell id="36" value="HarvestDetail" style="swimlane;childLayout=stackLayout;horizontal=1;startSize=30;horizontalStack=0;rounded=1;fontSize=18;fontStyle=0;strokeWidth=2;resizeParent=0;resizeLast=1;shadow=0;dashed=0;align=center;" parent="1" vertex="1"><mxGeometry x="110" y="890" width="220" height="170" as="geometry"/></mxCell><mxCell id="37" value="- Long id&#10;- Harvest harvest&#10;- Tree tree&#10;- Double quantity" style="align=left;strokeColor=none;fillColor=none;spacingLeft=4;fontSize=18;verticalAlign=top;resizable=0;rotatable=0;part=1;" parent="36" vertex="1"><mxGeometry y="30" width="220" height="140" as="geometry"/></mxCell><mxCell id="38" value="Sale " style="swimlane;childLayout=stackLayout;horizontal=1;startSize=30;horizontalStack=0;rounded=1;fontSize=18;fontStyle=0;strokeWidth=2;resizeParent=0;resizeLast=1;shadow=0;dashed=0;align=center;" parent="1" vertex="1"><mxGeometry x="496" y="892" width="220" height="170" as="geometry"/></mxCell><mxCell id="39" value="- Long id&#10;- LocalDate saleDate&#10;- Double unitPrice&#10;- Double quantity&#10;- String client" style="align=left;strokeColor=none;fillColor=none;spacingLeft=4;fontSize=18;verticalAlign=top;resizable=0;rotatable=0;part=1;" parent="38" vertex="1"><mxGeometry y="30" width="220" height="140" as="geometry"/></mxCell><mxCell id="40" value="(E) Season " style="swimlane;childLayout=stackLayout;horizontal=1;startSize=30;horizontalStack=0;rounded=1;fontSize=18;fontStyle=0;strokeWidth=2;resizeParent=0;resizeLast=1;shadow=0;dashed=0;align=center;" parent="1" vertex="1"><mxGeometry x="520" y="150" width="220" height="170" as="geometry"/></mxCell><mxCell id="41" value="- WINTER&#10;- SPRING&#10;- SUMMER&#10;- AUTUMN" style="align=left;strokeColor=none;fillColor=none;spacingLeft=4;fontSize=18;verticalAlign=top;resizable=0;rotatable=0;part=1;" parent="40" vertex="1"><mxGeometry y="30" width="220" height="140" as="geometry"/></mxCell><mxCell id="45" value="" style="endArrow=none;html=1;rounded=0;fontSize=18;exitX=0.5;exitY=0;exitDx=0;exitDy=0;entryX=0.5;entryY=1;entryDx=0;entryDy=0;" parent="1" source="32" target="31" edge="1"><mxGeometry relative="1" as="geometry"><mxPoint x="130" y="480" as="sourcePoint"/><mxPoint x="290" y="480" as="targetPoint"/></mxGeometry></mxCell><mxCell id="46" value="" style="endArrow=none;html=1;rounded=0;fontSize=18;exitX=0.638;exitY=0.009;exitDx=0;exitDy=0;entryX=0.618;entryY=1.001;entryDx=0;entryDy=0;exitPerimeter=0;entryPerimeter=0;" parent="1" source="30" target="24" edge="1"><mxGeometry relative="1" as="geometry"><mxPoint x="280" y="300" as="sourcePoint"/><mxPoint x="280" y="180" as="targetPoint"/><Array as="points"/></mxGeometry></mxCell><mxCell id="53" value="" style="endArrow=none;html=1;rounded=0;fontSize=18;exitX=0.5;exitY=0;exitDx=0;exitDy=0;" parent="1" source="36" edge="1"><mxGeometry relative="1" as="geometry"><mxPoint x="219.29" y="870" as="sourcePoint"/><mxPoint x="219" y="800" as="targetPoint"/></mxGeometry></mxCell><mxCell id="54" value="" style="endArrow=none;html=1;rounded=0;fontSize=18;entryX=0;entryY=1;entryDx=0;entryDy=0;exitX=0.5;exitY=0;exitDx=0;exitDy=0;" parent="1" target="35" edge="1"><mxGeometry relative="1" as="geometry"><mxPoint x="329.28" y="900" as="sourcePoint"/><mxPoint x="328.56999999999994" y="780" as="targetPoint"/></mxGeometry></mxCell><mxCell id="55" value="" style="endArrow=none;html=1;rounded=0;fontSize=18;entryX=0.5;entryY=1;entryDx=0;entryDy=0;" parent="1" edge="1"><mxGeometry relative="1" as="geometry"><mxPoint x="609" y="890" as="sourcePoint"/><mxPoint x="609.29" y="740" as="targetPoint"/></mxGeometry></mxCell><mxCell id="56" value="1" style="edgeLabel;html=1;align=center;verticalAlign=middle;resizable=0;points=[];fontSize=18;" parent="55" vertex="1" connectable="0"><mxGeometry x="0.2554" y="-5" relative="1" as="geometry"><mxPoint x="16" y="-36" as="offset"/></mxGeometry></mxCell><mxCell id="57" value="0..*" style="edgeLabel;html=1;align=center;verticalAlign=middle;resizable=0;points=[];fontSize=18;" parent="55" vertex="1" connectable="0"><mxGeometry x="-0.6971" y="-1" relative="1" as="geometry"><mxPoint x="19" y="10" as="offset"/></mxGeometry></mxCell><mxCell id="58" value="1" style="edgeLabel;html=1;align=center;verticalAlign=middle;resizable=0;points=[];fontSize=18;" parent="55" vertex="1" connectable="0"><mxGeometry x="0.2554" y="-5" relative="1" as="geometry"><mxPoint x="-134" y="-66" as="offset"/></mxGeometry></mxCell><mxCell id="59" value="0..*" style="edgeLabel;html=1;align=center;verticalAlign=middle;resizable=0;points=[];fontSize=18;" parent="55" vertex="1" connectable="0"><mxGeometry x="-0.6971" y="-1" relative="1" as="geometry"><mxPoint x="-280" y="3" as="offset"/></mxGeometry></mxCell><mxCell id="60" value="0..*" style="edgeLabel;html=1;align=center;verticalAlign=middle;resizable=0;points=[];fontSize=18;" parent="55" vertex="1" connectable="0"><mxGeometry x="-0.6971" y="-1" relative="1" as="geometry"><mxPoint x="-414" y="4" as="offset"/></mxGeometry></mxCell><mxCell id="61" value="1" style="edgeLabel;html=1;align=center;verticalAlign=middle;resizable=0;points=[];fontSize=18;" parent="55" vertex="1" connectable="0"><mxGeometry x="0.2554" y="-5" relative="1" as="geometry"><mxPoint x="-409" y="21" as="offset"/></mxGeometry></mxCell><mxCell id="62" value="0..*" style="edgeLabel;html=1;align=center;verticalAlign=middle;resizable=0;points=[];fontSize=18;" parent="55" vertex="1" connectable="0"><mxGeometry x="-0.6971" y="-1" relative="1" as="geometry"><mxPoint x="-410" y="-303" as="offset"/></mxGeometry></mxCell><mxCell id="63" value="1" style="edgeLabel;html=1;align=center;verticalAlign=middle;resizable=0;points=[];fontSize=18;" parent="55" vertex="1" connectable="0"><mxGeometry x="0.2554" y="-5" relative="1" as="geometry"><mxPoint x="-401" y="-296" as="offset"/></mxGeometry></mxCell><mxCell id="64" value="0..*" style="edgeLabel;html=1;align=center;verticalAlign=middle;resizable=0;points=[];fontSize=18;" parent="55" vertex="1" connectable="0"><mxGeometry x="-0.6971" y="-1" relative="1" as="geometry"><mxPoint x="-380" y="-577" as="offset"/></mxGeometry></mxCell><mxCell id="65" value="1" style="edgeLabel;html=1;align=center;verticalAlign=middle;resizable=0;points=[];fontSize=18;" parent="55" vertex="1" connectable="0"><mxGeometry x="0.2554" y="-5" relative="1" as="geometry"><mxPoint x="-382" y="-569" as="offset"/></mxGeometry></mxCell></root></mxGraphModel></diagram></mxfile>